<svg xmlns="http://www.w3.org/2000/svg" xmlns:xlink="http://www.w3.org/1999/xlink" width="500" zoomAndPan="magnify" viewBox="0 0 375 374.999991" height="500" preserveAspectRatio="xMidYMid meet" version="1.0"><defs><clipPath id="68662c3da3"><path d="M 37.5 37.5 L 339 37.5 L 339 339 L 37.5 339 Z M 37.5 37.5 " clip-rule="nonzero"/></clipPath><clipPath id="d3c46d40de"><path d="M 50.089844 49.28125 L 326.839844 49.28125 L 326.839844 326 L 50.089844 326 Z M 50.089844 49.28125 " clip-rule="nonzero"/></clipPath><clipPath id="66d3eabd43"><path d="M 69.644531 85.691406 L 306.644531 85.691406 L 306.644531 291.191406 L 69.644531 291.191406 Z M 69.644531 85.691406 " clip-rule="nonzero"/></clipPath><clipPath id="8fce194bd7"><path d="M 34.996094 35 L 341.746094 35 L 341.746094 341.746094 L 34.996094 341.746094 Z M 34.996094 35 " clip-rule="nonzero"/></clipPath><clipPath id="7f347dfe46"><path d="M 134.726562 283.171875 L 240.351562 283.171875 L 240.351562 312.34375 L 134.726562 312.34375 Z M 134.726562 283.171875 " clip-rule="nonzero"/></clipPath><clipPath id="1e73c73239"><path d="M 143.726562 283.171875 L 231.273438 283.171875 C 236.242188 283.171875 240.273438 287.203125 240.273438 292.171875 L 240.273438 303.34375 C 240.273438 308.3125 236.242188 312.34375 231.273438 312.34375 L 143.726562 312.34375 C 138.757812 312.34375 134.726562 308.3125 134.726562 303.34375 L 134.726562 292.171875 C 134.726562 287.203125 138.757812 283.171875 143.726562 283.171875 Z M 143.726562 283.171875 " clip-rule="nonzero"/></clipPath><clipPath id="76b2768786"><path d="M 0.726562 0.171875 L 106.351562 0.171875 L 106.351562 29.34375 L 0.726562 29.34375 Z M 0.726562 0.171875 " clip-rule="nonzero"/></clipPath><clipPath id="ed24011af7"><path d="M 9.726562 0.171875 L 97.273438 0.171875 C 102.242188 0.171875 106.273438 4.203125 106.273438 9.171875 L 106.273438 20.34375 C 106.273438 25.3125 102.242188 29.34375 97.273438 29.34375 L 9.726562 29.34375 C 4.757812 29.34375 0.726562 25.3125 0.726562 20.34375 L 0.726562 9.171875 C 0.726562 4.203125 4.757812 0.171875 9.726562 0.171875 Z M 9.726562 0.171875 " clip-rule="nonzero"/></clipPath><clipPath id="26d57edd4d"><rect x="0" width="107" y="0" height="30"/></clipPath><clipPath id="3fdf93152f"><path d="M 109.261719 283.171875 L 150.792969 283.171875 L 150.792969 297.757812 L 109.261719 297.757812 Z M 109.261719 283.171875 " clip-rule="nonzero"/></clipPath><clipPath id="25af2bb6cd"><path d="M 116.550781 283.171875 L 143.453125 283.171875 C 147.480469 283.171875 150.742188 286.4375 150.742188 290.464844 C 150.742188 294.492188 147.480469 297.757812 143.453125 297.757812 L 116.550781 297.757812 C 112.523438 297.757812 109.261719 294.492188 109.261719 290.464844 C 109.261719 286.4375 112.523438 283.171875 116.550781 283.171875 Z M 116.550781 283.171875 " clip-rule="nonzero"/></clipPath><clipPath id="c35db55652"><path d="M 0.261719 0.171875 L 41.792969 0.171875 L 41.792969 14.757812 L 0.261719 14.757812 Z M 0.261719 0.171875 " clip-rule="nonzero"/></clipPath><clipPath id="689460d928"><path d="M 7.550781 0.171875 L 34.453125 0.171875 C 38.480469 0.171875 41.742188 3.4375 41.742188 7.464844 C 41.742188 11.492188 38.480469 14.757812 34.453125 14.757812 L 7.550781 14.757812 C 3.523438 14.757812 0.261719 11.492188 0.261719 7.464844 C 0.261719 3.4375 3.523438 0.171875 7.550781 0.171875 Z M 7.550781 0.171875 " clip-rule="nonzero"/></clipPath><clipPath id="e1219628c0"><rect x="0" width="42" y="0" height="15"/></clipPath><clipPath id="28bcc62db6"><path d="M 212.527344 283.628906 L 261.070312 283.628906 L 261.070312 300.675781 L 212.527344 300.675781 Z M 212.527344 283.628906 " clip-rule="nonzero"/></clipPath><clipPath id="d1ea1eb85c"><path d="M 221.050781 283.628906 L 252.492188 283.628906 C 257.199219 283.628906 261.015625 287.445312 261.015625 292.152344 C 261.015625 296.859375 257.199219 300.675781 252.492188 300.675781 L 221.050781 300.675781 C 216.34375 300.675781 212.527344 296.859375 212.527344 292.152344 C 212.527344 287.445312 216.34375 283.628906 221.050781 283.628906 Z M 221.050781 283.628906 " clip-rule="nonzero"/></clipPath><clipPath id="31d87e6ace"><path d="M 0.527344 0.628906 L 49.070312 0.628906 L 49.070312 17.675781 L 0.527344 17.675781 Z M 0.527344 0.628906 " clip-rule="nonzero"/></clipPath><clipPath id="a2d69ecfb6"><path d="M 9.050781 0.628906 L 40.492188 0.628906 C 45.199219 0.628906 49.015625 4.445312 49.015625 9.152344 C 49.015625 13.859375 45.199219 17.675781 40.492188 17.675781 L 9.050781 17.675781 C 4.34375 17.675781 0.527344 13.859375 0.527344 9.152344 C 0.527344 4.445312 4.34375 0.628906 9.050781 0.628906 Z M 9.050781 0.628906 " clip-rule="nonzero"/></clipPath><clipPath id="0e962bd792"><rect x="0" width="50" y="0" height="18"/></clipPath></defs><g clip-path="url(#68662c3da3)"><path fill="#ffffff" d="M 339.105469 188.300781 C 339.105469 190.769531 339.042969 193.238281 338.921875 195.703125 C 338.800781 198.167969 338.621094 200.628906 338.378906 203.082031 C 338.136719 205.539062 337.835938 207.988281 337.472656 210.429688 C 337.109375 212.871094 336.6875 215.300781 336.207031 217.722656 C 335.726562 220.144531 335.1875 222.550781 334.585938 224.945312 C 333.988281 227.339844 333.328125 229.714844 332.613281 232.078125 C 331.894531 234.441406 331.121094 236.78125 330.289062 239.105469 C 329.457031 241.429688 328.570312 243.730469 327.625 246.011719 C 326.683594 248.292969 325.683594 250.546875 324.625 252.777344 C 323.570312 255.011719 322.460938 257.214844 321.300781 259.390625 C 320.136719 261.566406 318.917969 263.714844 317.652344 265.832031 C 316.382812 267.949219 315.0625 270.03125 313.691406 272.085938 C 312.320312 274.136719 310.898438 276.152344 309.429688 278.136719 C 307.957031 280.117188 306.441406 282.0625 304.875 283.972656 C 303.308594 285.878906 301.699219 287.746094 300.039062 289.574219 C 298.382812 291.402344 296.679688 293.191406 294.9375 294.9375 C 293.191406 296.679688 291.402344 298.382812 289.574219 300.039062 C 287.746094 301.699219 285.878906 303.308594 283.972656 304.875 C 282.0625 306.441406 280.117188 307.957031 278.136719 309.429688 C 276.152344 310.898438 274.136719 312.320312 272.085938 313.691406 C 270.03125 315.0625 267.949219 316.382812 265.832031 317.652344 C 263.714844 318.917969 261.566406 320.136719 259.390625 321.300781 C 257.214844 322.460938 255.011719 323.570312 252.777344 324.625 C 250.546875 325.683594 248.292969 326.683594 246.011719 327.625 C 243.730469 328.570312 241.429688 329.457031 239.105469 330.289062 C 236.78125 331.121094 234.441406 331.894531 232.078125 332.613281 C 229.714844 333.328125 227.339844 333.988281 224.945312 334.585938 C 222.550781 335.1875 220.144531 335.726562 217.722656 336.207031 C 215.300781 336.6875 212.871094 337.109375 210.429688 337.472656 C 207.988281 337.835938 205.539062 338.136719 203.085938 338.378906 C 200.628906 338.621094 198.167969 338.800781 195.703125 338.921875 C 193.238281 339.042969 190.769531 339.105469 188.300781 339.105469 C 185.835938 339.105469 183.367188 339.042969 180.902344 338.921875 C 178.4375 338.800781 175.976562 338.621094 173.519531 338.378906 C 171.066406 338.136719 168.617188 337.835938 166.175781 337.472656 C 163.734375 337.109375 161.304688 336.6875 158.882812 336.207031 C 156.460938 335.726562 154.054688 335.1875 151.660156 334.585938 C 149.265625 333.988281 146.890625 333.328125 144.527344 332.613281 C 142.164062 331.894531 139.824219 331.121094 137.5 330.289062 C 135.175781 329.457031 132.875 328.570312 130.59375 327.625 C 128.3125 326.683594 126.058594 325.683594 123.828125 324.625 C 121.59375 323.570312 119.390625 322.460938 117.214844 321.300781 C 115.039062 320.136719 112.890625 318.917969 110.773438 317.652344 C 108.65625 316.382812 106.574219 315.0625 104.519531 313.691406 C 102.46875 312.320312 100.453125 310.898438 98.46875 309.429688 C 96.488281 307.957031 94.542969 306.441406 92.632812 304.875 C 90.726562 303.308594 88.859375 301.699219 87.03125 300.039062 C 85.199219 298.382812 83.414062 296.679688 81.667969 294.9375 C 79.925781 293.191406 78.222656 291.402344 76.566406 289.574219 C 74.90625 287.746094 73.296875 285.878906 71.730469 283.972656 C 70.164062 282.0625 68.648438 280.117188 67.175781 278.136719 C 65.707031 276.152344 64.285156 274.136719 62.914062 272.085938 C 61.542969 270.03125 60.222656 267.949219 58.953125 265.832031 C 57.6875 263.714844 56.46875 261.566406 55.304688 259.390625 C 54.144531 257.214844 53.035156 255.011719 51.980469 252.777344 C 50.921875 250.546875 49.921875 248.292969 48.980469 246.011719 C 48.035156 243.730469 47.148438 241.429688 46.316406 239.105469 C 45.484375 236.78125 44.710938 234.441406 43.992188 232.078125 C 43.277344 229.714844 42.617188 227.339844 42.019531 224.945312 C 41.417969 222.550781 40.878906 220.144531 40.398438 217.722656 C 39.917969 215.300781 39.496094 212.871094 39.132812 210.429688 C 38.769531 207.988281 38.46875 205.539062 38.226562 203.082031 C 37.984375 200.628906 37.804688 198.167969 37.683594 195.703125 C 37.5625 193.238281 37.5 190.769531 37.5 188.300781 C 37.5 185.835938 37.5625 183.367188 37.683594 180.902344 C 37.804688 178.4375 37.984375 175.976562 38.226562 173.519531 C 38.46875 171.066406 38.769531 168.617188 39.132812 166.175781 C 39.496094 163.734375 39.917969 161.304688 40.398438 158.882812 C 40.878906 156.460938 41.417969 154.054688 42.019531 151.660156 C 42.617188 149.265625 43.277344 146.890625 43.992188 144.527344 C 44.710938 142.164062 45.484375 139.824219 46.316406 137.5 C 47.148438 135.175781 48.035156 132.875 48.980469 130.59375 C 49.921875 128.3125 50.921875 126.058594 51.980469 123.828125 C 53.035156 121.59375 54.144531 119.390625 55.304688 117.214844 C 56.46875 115.039062 57.6875 112.890625 58.953125 110.773438 C 60.222656 108.65625 61.542969 106.574219 62.914062 104.519531 C 64.285156 102.46875 65.707031 100.453125 67.175781 98.46875 C 68.648438 96.488281 70.164062 94.542969 71.730469 92.632812 C 73.296875 90.726562 74.90625 88.859375 76.566406 87.03125 C 78.222656 85.199219 79.925781 83.414062 81.667969 81.667969 C 83.414062 79.925781 85.199219 78.222656 87.03125 76.566406 C 88.859375 74.90625 90.726562 73.296875 92.632812 71.730469 C 94.542969 70.164062 96.488281 68.648438 98.46875 67.175781 C 100.453125 65.707031 102.46875 64.285156 104.519531 62.914062 C 106.574219 61.542969 108.65625 60.222656 110.773438 58.953125 C 112.890625 57.6875 115.039062 56.46875 117.214844 55.304688 C 119.390625 54.144531 121.59375 53.035156 123.828125 51.980469 C 126.058594 50.921875 128.3125 49.921875 130.59375 48.980469 C 132.875 48.035156 135.175781 47.148438 137.5 46.316406 C 139.824219 45.484375 142.164062 44.710938 144.527344 43.992188 C 146.890625 43.277344 149.265625 42.617188 151.660156 42.019531 C 154.054688 41.417969 156.460938 40.878906 158.882812 40.398438 C 161.304688 39.917969 163.734375 39.496094 166.175781 39.132812 C 168.617188 38.769531 171.066406 38.46875 173.519531 38.226562 C 175.976562 37.984375 178.4375 37.804688 180.902344 37.683594 C 183.367188 37.5625 185.835938 37.5 188.300781 37.5 C 190.769531 37.5 193.238281 37.5625 195.703125 37.683594 C 198.167969 37.804688 200.628906 37.984375 203.085938 38.226562 C 205.539062 38.46875 207.988281 38.769531 210.429688 39.132812 C 212.871094 39.496094 215.300781 39.917969 217.722656 40.398438 C 220.144531 40.878906 222.550781 41.417969 224.945312 42.019531 C 227.339844 42.617188 229.714844 43.277344 232.078125 43.992188 C 234.441406 44.710938 236.78125 45.484375 239.105469 46.316406 C 241.429688 47.148438 243.730469 48.035156 246.011719 48.980469 C 248.292969 49.921875 250.546875 50.921875 252.777344 51.980469 C 255.011719 53.035156 257.214844 54.144531 259.390625 55.304688 C 261.566406 56.46875 263.714844 57.6875 265.832031 58.953125 C 267.949219 60.222656 270.03125 61.542969 272.085938 62.914062 C 274.136719 64.285156 276.152344 65.707031 278.136719 67.175781 C 280.117188 68.648438 282.0625 70.164062 283.972656 71.730469 C 285.878906 73.296875 287.746094 74.90625 289.574219 76.566406 C 291.402344 78.222656 293.191406 79.925781 294.9375 81.667969 C 296.679688 83.414062 298.382812 85.199219 300.039062 87.03125 C 301.699219 88.859375 303.308594 90.726562 304.875 92.632812 C 306.441406 94.542969 307.957031 96.488281 309.429688 98.46875 C 310.898438 100.453125 312.320312 102.46875 313.691406 104.519531 C 315.0625 106.574219 316.382812 108.65625 317.652344 110.773438 C 318.917969 112.890625 320.136719 115.039062 321.300781 117.214844 C 322.460938 119.390625 323.570312 121.59375 324.625 123.828125 C 325.683594 126.058594 326.683594 128.3125 327.625 130.59375 C 328.570312 132.875 329.457031 135.175781 330.289062 137.5 C 331.121094 139.824219 331.894531 142.164062 332.613281 144.527344 C 333.328125 146.890625 333.988281 149.265625 334.585938 151.660156 C 335.1875 154.054688 335.726562 156.460938 336.207031 158.882812 C 336.6875 161.304688 337.109375 163.734375 337.472656 166.175781 C 337.835938 168.617188 338.136719 171.066406 338.378906 173.519531 C 338.621094 175.976562 338.800781 178.4375 338.921875 180.902344 C 339.042969 183.367188 339.105469 185.835938 339.105469 188.300781 Z M 339.105469 188.300781 " fill-opacity="1" fill-rule="nonzero"/></g><path fill="#717744" d="M 188.300781 324.722656 C 113.015625 324.722656 51.882812 263.589844 51.882812 188.304688 C 51.882812 113.015625 113.015625 51.882812 188.300781 51.882812 C 263.589844 51.882812 324.722656 113.015625 324.722656 188.304688 C 324.722656 263.589844 263.589844 324.722656 188.300781 324.722656 Z M 188.300781 55.253906 C 114.8125 55.253906 55.253906 114.8125 55.253906 188.300781 C 55.253906 261.792969 115.035156 321.351562 188.300781 321.351562 C 261.792969 321.351562 321.351562 261.570312 321.351562 188.304688 C 321.351562 114.8125 261.792969 55.253906 188.300781 55.253906 Z M 188.300781 55.253906 " fill-opacity="1" fill-rule="nonzero"/><g clip-path="url(#d3c46d40de)"><path fill="#717744" d="M 138.855469 316.535156 C 121.632812 309.949219 105.933594 300.074219 92.507812 287.15625 C 79.085938 274.242188 68.578125 259.046875 61.230469 242.078125 C 54.140625 225.613281 50.46875 208.265625 50.089844 190.285156 C 49.707031 172.304688 52.746094 154.828125 59.207031 138.113281 C 65.789062 120.890625 75.667969 105.191406 88.582031 91.765625 C 101.5 78.34375 116.695312 67.832031 133.664062 60.488281 C 150.125 53.398438 167.472656 49.726562 185.457031 49.347656 C 203.4375 48.964844 220.914062 52.003906 237.628906 58.464844 C 254.847656 65.046875 270.550781 74.925781 283.972656 87.839844 C 297.398438 100.757812 307.90625 115.953125 315.25 132.921875 C 322.34375 149.382812 326.015625 166.730469 326.394531 184.714844 C 326.773438 202.695312 323.734375 220.167969 317.277344 236.886719 C 310.691406 254.105469 300.816406 269.808594 287.898438 283.230469 C 274.984375 296.65625 259.789062 307.164062 242.820312 314.507812 C 226.355469 321.601562 209.007812 325.273438 191.027344 325.652344 C 190.015625 325.652344 189.128906 325.652344 188.113281 325.652344 C 171.148438 325.652344 154.558594 322.613281 138.855469 316.535156 Z M 185.710938 64.667969 C 152.910156 65.300781 122.265625 78.722656 99.601562 102.402344 C 76.933594 126.082031 64.777344 157.234375 65.410156 190.03125 C 66.042969 222.828125 79.464844 253.472656 103.144531 276.140625 C 126.191406 298.300781 156.332031 310.332031 188.242188 310.332031 C 189.128906 310.332031 189.886719 310.332031 190.773438 310.332031 C 223.570312 309.695312 254.214844 296.273438 276.882812 272.59375 C 299.550781 248.914062 311.707031 217.765625 311.074219 184.964844 C 310.441406 152.167969 297.015625 121.523438 273.335938 98.859375 C 250.289062 76.699219 220.152344 64.667969 188.242188 64.667969 C 156.332031 64.667969 186.59375 64.667969 185.710938 64.667969 Z M 185.710938 64.667969 " fill-opacity="1" fill-rule="nonzero"/></g><g clip-path="url(#66d3eabd43)"><path fill="#717744" d="M 279.871094 294.046875 C 284.285156 294.300781 288.519531 293.285156 292.789062 292.308594 C 296.042969 291.550781 299.445312 291.515625 302.664062 292.960938 C 303.824219 293.46875 305.054688 293.792969 306.933594 294.445312 C 302.703125 289.34375 297.960938 287.679688 292.390625 289.019531 C 285.445312 290.683594 278.859375 290.320312 272.601562 286.738281 C 263.773438 281.671875 254.257812 279.902344 244.199219 280.625 C 239.242188 280.984375 234.359375 280.550781 229.582031 279.175781 C 218.078125 275.882812 208.417969 270.242188 203.640625 258.445312 C 200.929688 251.753906 199.769531 244.699219 199.265625 237.605469 C 198.902344 232.253906 198.648438 226.714844 199.519531 221.472656 C 201.398438 210.21875 213.011719 199.472656 224.335938 197.628906 C 232.1875 196.324219 235.335938 198.28125 237.867188 205.949219 C 238.375 207.542969 239.277344 208.917969 240.402344 210.21875 C 243.800781 214.125 248.613281 213.476562 253.0625 214.742188 C 252.160156 211.628906 251.363281 208.84375 251.039062 205.949219 C 250.710938 202.875 249.046875 200.523438 246.335938 199.003906 C 244.019531 197.699219 241.628906 196.542969 238.917969 196.074219 C 237.507812 195.820312 235.625 195.023438 235.804688 193.503906 C 235.988281 191.984375 237.902344 193.105469 238.988281 192.851562 C 239.421875 192.746094 239.894531 192.851562 240.328125 192.851562 C 251.761719 192.890625 256.355469 197.15625 257.152344 208.335938 C 257.367188 211.59375 258.492188 214.597656 261.566406 216.152344 C 264.242188 217.527344 267.136719 218.503906 270.03125 219.660156 C 270.539062 209.894531 268.691406 205.734375 260.226562 201.96875 C 258.273438 201.101562 256.753906 199.363281 255.992188 197.011719 C 261.167969 197.84375 265.582031 199.761719 269.199219 203.34375 C 271.984375 206.128906 275.386719 206.855469 279.078125 206.3125 C 281.644531 205.949219 284.214844 205.261719 286.78125 204.71875 C 283.273438 194.914062 274.480469 191.261719 265.4375 196.21875 C 263.734375 197.121094 262.070312 197.121094 260.261719 196.507812 C 256.933594 195.421875 254.691406 193.070312 252.304688 190.175781 C 256.679688 190.066406 259.613281 193.867188 263.628906 192.890625 C 267.210938 191.984375 270.792969 191.007812 274.519531 189.996094 C 273.394531 188.800781 272.457031 187.714844 271.40625 186.738281 C 267.246094 182.902344 260.300781 182.035156 256.285156 185.582031 C 251.363281 189.957031 246.625 186.8125 240.90625 186.738281 C 247.203125 180.117188 254.582031 178.527344 262.070312 177.402344 C 265.835938 176.863281 268.765625 178.238281 270.648438 181.816406 C 272.851562 186.050781 276.6875 188.039062 281.355469 188.257812 C 284.574219 188.4375 287.832031 188.292969 291.304688 188.292969 C 289.820312 182.542969 287.652344 177.65625 281.535156 176.320312 C 278.136719 175.59375 274.589844 175.777344 271.152344 176.320312 C 267.644531 176.824219 264.605469 175.523438 260.769531 174.402344 C 264.496094 171.722656 267.460938 169.625 271.730469 171.179688 C 280.777344 174.511719 285.15625 173.136719 291.339844 165.539062 C 292.066406 164.632812 292.355469 164.234375 291.269531 163.476562 C 285.804688 159.75 276.542969 157.6875 271.1875 165.933594 C 269.378906 168.683594 267.027344 169.265625 264.097656 169.226562 C 264.894531 164.164062 268.257812 161.523438 272.492188 159.894531 C 278.207031 157.6875 281.464844 153.527344 282.949219 147.773438 C 283.164062 147.011719 283.742188 146.144531 282.65625 145.820312 C 280.199219 145.132812 277.847656 143.972656 275.132812 144.515625 C 270.210938 145.492188 266.160156 150.632812 266.449219 156.492188 C 266.777344 163.1875 261.78125 170.347656 255.632812 172.628906 C 251.578125 174.113281 247.417969 175.414062 243.257812 176.644531 C 242.246094 176.933594 241.378906 177.222656 240.652344 177.984375 C 235.261719 183.808594 228.496094 187.355469 220.9375 189.378906 C 219.886719 189.667969 218.296875 190.972656 217.609375 189.742188 C 216.882812 188.367188 218.078125 186.8125 218.910156 185.507812 C 219.488281 184.566406 220.5 184.894531 221.371094 184.75 C 224.953125 184.097656 228.824219 184.132812 231.246094 180.589844 C 233.34375 177.550781 232.730469 175.050781 229.402344 173.53125 C 225.785156 171.90625 222.382812 173.28125 219.921875 176.789062 C 217.714844 179.902344 216.921875 183.628906 215.148438 186.847656 C 212.398438 191.914062 207.007812 195.132812 199.011719 197.085938 C 200.097656 193.070312 201.761719 189.453125 203.859375 186.050781 C 207.585938 180.152344 211.820312 174.691406 218.222656 171.324219 C 221.117188 169.804688 224.226562 169.734375 227.304688 169.371094 C 229.726562 169.082031 229.910156 171.472656 231.210938 172.519531 C 231.644531 172.882812 232.1875 173.097656 232.65625 173.351562 C 238.664062 176.5 245.683594 174.003906 250.132812 166.949219 C 247.960938 166.550781 246.332031 165.246094 244.597656 164.125 C 241.015625 161.738281 237.941406 161.628906 234.757812 164.269531 C 230.8125 167.527344 226.433594 167.453125 221.515625 166.984375 C 225.277344 162.207031 229.617188 158.953125 235.335938 157.722656 C 242.136719 156.277344 248.289062 156.671875 252.085938 163.726562 C 252.847656 165.140625 254.078125 166.152344 255.558594 166.839844 C 257.765625 167.816406 260.40625 166.476562 261.457031 163.910156 C 262.652344 161.050781 260.445312 160.761719 258.636719 160.21875 C 255.847656 159.386719 253.171875 158.375 250.167969 158.335938 C 248.902344 158.335938 247.273438 158.15625 246.550781 156.925781 C 245.175781 154.574219 242.859375 154.105469 240.039062 153.308594 C 243.765625 151.03125 245.898438 147.628906 248.722656 144.988281 C 252.304688 141.621094 256.285156 139.308594 261.347656 142.238281 C 262.324219 142.78125 263.445312 142.890625 264.605469 142.960938 C 270.140625 143.359375 273.613281 139.378906 278.207031 137.28125 C 271.152344 131.09375 265.871094 130.371094 260.695312 135.21875 C 257.910156 137.824219 255.015625 139.308594 251.328125 139.308594 C 252.121094 135.074219 254.113281 132 258.671875 130.878906 C 261.601562 130.152344 263.195312 128.019531 264.097656 125.050781 C 264.894531 122.410156 264.207031 119.660156 265.003906 117.058594 C 265.796875 114.5625 264.496094 114.414062 262.578125 114.8125 C 254.472656 116.550781 250.785156 122.339844 252.664062 130.480469 C 252.917969 131.492188 253.351562 132.433594 252.738281 133.375 C 250.167969 137.246094 248.179688 141.550781 244.417969 144.625 C 240.652344 147.699219 236.710938 150.378906 232.1875 152.152344 C 231.246094 152.511719 229.910156 153.238281 229.078125 152.222656 C 228.246094 151.246094 229.148438 150.050781 229.546875 149.074219 C 230.597656 146.578125 232.765625 145.890625 235.261719 145.746094 C 241.414062 145.421875 244.234375 143.105469 245.972656 137.171875 C 246.480469 135.472656 246.949219 133.773438 247.636719 131.382812 C 243.875 133.445312 239.859375 132.578125 236.457031 134.75 C 232.804688 137.0625 233.417969 141.730469 230.632812 144.589844 C 228.714844 136.449219 232.984375 129.972656 240.941406 128.777344 C 250.457031 127.367188 252.449219 124.367188 250.457031 114.054688 C 245.03125 116.765625 239.675781 119.589844 238.917969 126.644531 C 238.882812 126.96875 238.734375 127.296875 238.484375 127.511719 C 237.796875 128.164062 237.253906 128.417969 236.890625 127.152344 C 235.804688 123.425781 237.46875 119.769531 241.125 117.996094 C 245.210938 116.007812 246.914062 112.859375 246.296875 108.445312 C 246.042969 106.566406 245.71875 104.683594 245.429688 102.839844 C 235.082031 104.828125 233.34375 108.84375 235.804688 118.648438 C 236.132812 119.914062 236.09375 120.964844 235.949219 122.195312 C 235.226562 128.019531 230.667969 131.492188 227.953125 136.304688 C 225.132812 132.144531 225.132812 132.144531 228.785156 129.609375 C 232.984375 126.71875 234.214844 120.820312 231.320312 116.875 C 230.8125 116.152344 230.414062 115.066406 229.003906 115.5 C 225.058594 116.730469 221.226562 122.882812 222.382812 126.863281 C 223.324219 130.191406 223.902344 133.589844 224.734375 136.917969 C 226.578125 144.265625 224.84375 150.667969 219.921875 156.203125 C 216.847656 159.640625 213.445312 162.75 210.191406 166.007812 C 209.828125 166.371094 209.46875 166.875 208.78125 166.371094 C 209.324219 162.246094 210.082031 158.375 213.917969 155.695312 C 221.226562 150.558594 222.492188 145.710938 219.273438 136.917969 C 217.535156 138.765625 215.183594 139.632812 213.121094 140.863281 C 209.25 143.140625 206.535156 146.796875 207.367188 151.03125 C 208.34375 156.023438 207.730469 160.363281 205.667969 164.378906 C 206.320312 160.109375 203.496094 156.238281 202.664062 152.078125 C 202.375 154.03125 201.144531 155.371094 200.132812 156.855469 C 196.984375 161.484375 197.925781 165.863281 202.265625 168.613281 C 202.519531 168.757812 202.703125 168.867188 202.847656 168.9375 C 202.519531 169.699219 202.230469 170.492188 201.796875 171.179688 C 199.011719 175.558594 196.152344 179.863281 192.933594 184.855469 C 191.234375 179.140625 191.378906 174.148438 192.210938 169.226562 C 193.910156 159.242188 196.839844 149.761719 203.75 141.875 C 205.125 140.320312 206.066406 139.488281 208.199219 139.414062 C 212.652344 139.308594 215.796875 136.992188 217.316406 132.757812 C 218.441406 129.683594 219.164062 126.535156 218.765625 123.242188 C 218.296875 119.445312 219.960938 117.128906 223.394531 115.683594 C 225.242188 114.921875 226.976562 113.835938 228.640625 112.714844 C 236.238281 107.398438 236.636719 101.898438 232.117188 93.539062 C 231.789062 92.925781 231.390625 91.839844 230.414062 92.707031 C 226.6875 96.035156 221.730469 99.003906 222.347656 104.71875 C 222.960938 110.4375 222.636719 115.03125 217.714844 118.902344 C 215.941406 120.277344 214.75 122.195312 212.289062 122.917969 C 206.609375 124.65625 204.078125 128.417969 203.894531 134.421875 C 203.859375 135.617188 204.078125 136.847656 203.351562 138.003906 C 202.664062 139.054688 202.121094 140.609375 200.746094 140.140625 C 199.410156 139.667969 199.335938 138.113281 199.664062 136.738281 C 200.746094 132.542969 201.542969 128.273438 203.785156 124.4375 C 204.472656 123.242188 205.558594 121.761719 204.328125 120.421875 C 204.222656 120.3125 204.148438 120.242188 204.039062 120.132812 C 205.34375 119.699219 206.679688 119.480469 207.984375 119.191406 C 213.410156 117.960938 216.523438 113.691406 215.109375 108.953125 C 214.421875 106.671875 214.277344 105.445312 213.882812 105.046875 C 217.28125 102.800781 219.234375 98.75 219.453125 93.972656 C 219.488281 93.105469 220.03125 91.839844 218.367188 91.660156 C 211.277344 90.898438 203.933594 93.070312 203.316406 102.765625 C 203.207031 104.648438 202.738281 106.347656 201.253906 107.503906 C 199.335938 108.988281 197.347656 110.363281 195.574219 112.5 C 194.453125 107.976562 195.898438 104.71875 198.359375 101.609375 C 202.519531 96.253906 201 89.308594 195.25 85.941406 C 194.199219 85.328125 193.875 86.015625 193.296875 86.484375 C 189.097656 90.03125 188.554688 96.074219 191.921875 100.667969 C 192.570312 101.535156 193.800781 102.113281 193.835938 103.34375 C 194.019531 108.484375 194.273438 113.691406 192.460938 118.613281 C 191.8125 120.347656 190.835938 121.074219 189.0625 119.265625 C 186.925781 117.09375 187.179688 115.101562 188.628906 112.75 C 192.316406 106.925781 191.8125 102.257812 187.144531 97.339844 C 185.371094 95.492188 183.417969 93.867188 182.007812 91.585938 C 177.230469 99.039062 177.160156 105.007812 181.789062 111.230469 C 185.699219 116.476562 187.6875 122.808594 191.738281 127.984375 C 192.898438 129.464844 193.367188 131.671875 193.65625 133.628906 C 194.164062 137.246094 194.128906 140.863281 191.558594 144.191406 C 189.242188 139.996094 191.777344 135.6875 190.109375 131.671875 C 188.484375 127.695312 185.949219 124.726562 182.476562 121.941406 C 182.550781 123.894531 182.261719 125.414062 181.644531 126.898438 C 178.605469 134.316406 179.871094 138.582031 186.566406 143.214844 C 187.867188 144.121094 189.242188 144.988281 189.171875 146.832031 C 188.988281 151.246094 186.820312 154.902344 184.285156 158.84375 C 189.171875 148.460938 178.933594 143.578125 176.652344 135.90625 C 175.894531 137.859375 175.242188 139.886719 174.300781 141.730469 C 172.457031 145.242188 172.816406 148.570312 174.375 152.042969 C 175.640625 154.792969 177.59375 156.816406 180.054688 158.554688 C 181.789062 159.785156 183.5625 161.085938 183.128906 163.691406 C 182.550781 167.019531 181.972656 170.386719 181.355469 173.859375 C 174.445312 165.394531 171.152344 155.734375 170.394531 145.242188 C 170.066406 140.789062 169.164062 135.761719 173.578125 132.46875 C 178.425781 128.816406 180.054688 124.113281 178.785156 118.070312 C 176.796875 118.902344 174.699219 119.660156 172.746094 120.640625 C 168.984375 122.519531 167.066406 126.71875 168.65625 130.550781 C 169.851562 133.335938 168.765625 135.363281 167.859375 137.859375 C 164.714844 133.121094 164.171875 128.238281 164.859375 122.992188 C 165.363281 119.226562 166.992188 117.238281 170.753906 117.164062 C 172.78125 117.128906 174.84375 117.347656 176.796875 117.09375 C 178.714844 116.839844 180.523438 116.007812 180.453125 113.511719 C 180.378906 111.449219 179.65625 109.710938 177.558594 109.132812 C 173.324219 107.976562 168.800781 110.761719 167.679688 115.066406 C 167.535156 115.644531 167.859375 116.515625 166.8125 116.585938 C 165.4375 111.558594 166.015625 109.785156 169.996094 107 C 176.507812 102.441406 177.808594 98.28125 175.0625 90.898438 C 174.519531 89.414062 173.9375 87.933594 173.179688 85.835938 C 172.167969 87.0625 171.625 88.148438 170.71875 88.765625 C 163.230469 93.722656 162.144531 100.558594 164.929688 108.484375 C 166.339844 112.535156 163.808594 115.210938 162.179688 119.082031 C 161.710938 117.5625 161.636719 116.875 161.3125 116.332031 C 158.671875 111.992188 158.492188 108.121094 161.09375 103.238281 C 163.988281 97.773438 163.011719 91.875 157.621094 88.4375 C 156.03125 87.425781 155.742188 87.894531 154.945312 89.054688 C 151.542969 94.046875 151.652344 99.003906 154.511719 104.175781 C 156.210938 107.253906 157.804688 110.398438 157.441406 114.488281 C 154.835938 112.136719 152.269531 110.21875 153.425781 106.421875 C 153.605469 105.878906 153.207031 105.117188 153.027344 104.503906 C 151.253906 98.679688 145.863281 97.265625 141.195312 95.058594 C 140.4375 94.699219 140.074219 95.167969 139.859375 96 C 138.050781 102.800781 142.136719 110.398438 149.121094 111.59375 C 155.632812 112.714844 157.949219 117.273438 159.394531 122.484375 C 159.9375 124.402344 161.3125 126.898438 159.503906 129.175781 C 158.597656 128.453125 158.382812 127.65625 158.199219 126.753906 C 156.898438 120.710938 153.785156 116.875 146.984375 116.332031 C 141.234375 115.898438 140.328125 114.488281 140.039062 108.773438 C 139.929688 106.746094 139.132812 105.152344 137.796875 103.707031 C 134.972656 100.703125 131.175781 100.089844 127.414062 99.257812 C 126.433594 107.902344 129.402344 114.453125 138.410156 115.464844 C 141.882812 115.863281 143.511719 117.347656 144.273438 120.855469 C 145.429688 126.101562 148 130.191406 154.582031 129.464844 C 157.152344 129.175781 159.03125 131.128906 160.082031 133.265625 C 162.324219 137.824219 163.445312 142.636719 162.832031 147.953125 C 160.914062 147.121094 160.082031 145.710938 160.300781 143.902344 C 161.167969 136.703125 155.453125 132.109375 147.238281 132.179688 C 146.40625 132.179688 145.609375 132.109375 145.753906 133.335938 C 146.625 139.597656 147.671875 145.3125 155.742188 146.90625 C 159.613281 147.664062 162.035156 150.8125 162.507812 155.625 C 157.476562 150.59375 151.109375 148.425781 145.898438 144.410156 C 143.1875 142.308594 141.449219 139.453125 140.257812 136.230469 C 139.894531 135.253906 139.859375 134.242188 140.328125 133.300781 C 143.257812 127.476562 140.871094 123.027344 136.820312 118.867188 C 135.445312 117.453125 134.757812 117.851562 133.707031 119.082031 C 130.632812 122.59375 131.320312 128.199219 135.40625 131.601562 C 136.53125 132.542969 137.757812 133.300781 137.90625 134.964844 C 138.011719 136.484375 137.722656 137.101562 136.09375 136.375 C 132.804688 134.929688 129.113281 128.777344 129.4375 125.050781 C 130.160156 116.476562 126.289062 110.507812 118.367188 107.976562 C 117.316406 107.648438 116.59375 107.648438 116.523438 108.953125 C 116.195312 114.125 115.617188 119.300781 120.574219 123.097656 C 122.527344 124.582031 124.230469 126.390625 126.472656 127.511719 C 128.789062 128.707031 130.015625 130.550781 130.414062 133.230469 C 124.082031 131.128906 124.082031 131.128906 121.007812 126.066406 C 118.65625 122.265625 114.964844 120.710938 110.804688 120.640625 C 107.765625 120.601562 103.101562 120.3125 102.195312 122.554688 C 101.328125 124.726562 104.582031 127.945312 106.863281 130.117188 C 109.828125 132.902344 112.90625 134.566406 117.425781 133.480469 C 125.277344 131.636719 131.140625 136.085938 136.492188 141.082031 C 137.109375 141.621094 138.589844 142.636719 137.363281 143.792969 C 136.457031 144.660156 135.226562 144.082031 134.25 143.433594 C 133.707031 143.070312 133.273438 142.5625 132.875 142.058594 C 130.992188 139.851562 128.679688 138.582031 125.820312 137.859375 C 122.925781 137.101562 120.03125 137.859375 116.921875 136.957031 C 117.898438 138.765625 118.65625 140.210938 119.417969 141.660156 C 122.492188 147.449219 125.929688 148.824219 132.117188 146.652344 C 133.273438 146.253906 134.179688 146.109375 135.261719 146.722656 C 137.21875 147.773438 139.277344 148.640625 141.234375 149.726562 C 144.34375 151.464844 147.527344 153.164062 150.640625 156.167969 C 146.1875 156.3125 142.609375 157.035156 139.351562 153.921875 C 136.09375 150.847656 132.007812 150.523438 127.808594 152.257812 C 126.109375 152.984375 124.445312 153.707031 121.625 153.886719 C 124.625 155.660156 125.640625 157.941406 127.414062 159.640625 C 131.535156 163.582031 135.699219 164.054688 140.90625 161.773438 C 151.039062 157.324219 157.585938 159.023438 162.6875 165.175781 C 164.207031 166.984375 165.796875 168.722656 167.28125 170.566406 C 173.46875 178.199219 174.878906 187.027344 174.226562 196.90625 C 171.984375 195.277344 170.25 193.902344 168.367188 192.671875 C 166.414062 191.371094 164.207031 190.429688 162.363281 189.019531 C 159.070312 186.484375 156.464844 183.375 155.523438 179.175781 C 157.261719 179.105469 158.308594 177.945312 159.140625 176.464844 C 160.261719 174.4375 160.589844 172.265625 159.902344 170.023438 C 158.960938 166.984375 158.019531 163.945312 157.007812 160.6875 C 151.253906 164.851562 149.914062 167.816406 150.457031 172.449219 C 150.242188 172.050781 150.023438 171.6875 149.769531 171.363281 C 146.007812 166.515625 139.242188 165.210938 135.261719 168.394531 C 133.851562 169.515625 133.453125 170.492188 134.902344 171.941406 C 139.207031 176.355469 143.402344 180.769531 150.53125 178.671875 C 152.230469 178.164062 153.894531 178.816406 153.933594 180.839844 C 153.96875 182.757812 154.65625 184.460938 155.34375 186.882812 C 151.289062 184.496094 147.273438 184.023438 143.511719 182.648438 C 137.542969 180.480469 132.332031 177.257812 129.65625 171.253906 C 128.28125 168.179688 126.253906 165.789062 123.867188 163.546875 C 122.382812 162.171875 120.9375 160.761719 119.632812 159.207031 C 117.96875 157.214844 117.066406 154.828125 117.933594 152.332031 C 119.597656 147.699219 118.402344 144.011719 114.785156 140.898438 C 113.265625 139.597656 111.746094 138.257812 110.300781 137.027344 C 107.078125 142.453125 107.476562 145.820312 112.289062 150.523438 C 113.300781 151.535156 114.277344 152.550781 115.652344 153.238281 C 116.957031 153.921875 116.523438 155.441406 116.195312 156.566406 C 116.015625 157.253906 115.183594 157 114.820312 156.601562 C 110.949219 152.765625 106.574219 149.257812 105.597656 143.394531 C 105.054688 140.210938 104.4375 137.027344 102.59375 134.242188 C 101.074219 131.960938 93.585938 128.777344 92.136719 130.152344 C 90.113281 132.070312 92.101562 134.566406 92.246094 136.773438 C 92.5 141.40625 95.71875 145.058594 100.132812 146.035156 C 105.34375 147.195312 107.40625 151.136719 109.828125 155.878906 C 106.210938 154.285156 102.992188 153.742188 100.75 151.101562 C 97.78125 147.59375 93.835938 146.542969 89.53125 147.882812 C 84.972656 149.292969 82.804688 152.910156 81.753906 157.613281 C 83.453125 157.613281 85.011719 157.324219 86.386719 157.6875 C 90.617188 158.808594 94.5625 158.335938 98.324219 156.058594 C 101.039062 154.394531 103.75 154.574219 106.609375 155.949219 C 108.960938 157.070312 111.058594 158.519531 113.050781 160.148438 C 118.296875 164.453125 122.671875 169.480469 124.84375 176.136719 C 119.488281 176.863281 116.160156 174.800781 114.53125 169.699219 C 113.628906 166.949219 113.230469 164.054688 111.746094 161.519531 C 110.226562 158.988281 104.222656 156.746094 102.558594 158.480469 C 100.53125 160.617188 101.507812 163.511719 102.519531 166.007812 C 103.0625 167.347656 104.039062 168.394531 105.34375 169.226562 C 107.261719 170.492188 109.324219 171.253906 111.53125 171.652344 C 113.445312 171.976562 114.132812 173.027344 114.027344 174.835938 C 107.332031 175.59375 102.738281 172.410156 98.433594 167.636719 C 92.933594 161.59375 82.949219 163.875 79.691406 171.433594 C 81.101562 171.761719 82.515625 172.011719 83.886719 172.449219 C 85.371094 172.953125 86.746094 173.640625 88.195312 174.257812 C 91.050781 175.449219 93.765625 176.03125 96.875 174.546875 C 101.039062 172.554688 103.570312 173.53125 106.390625 177.476562 C 104.582031 177.984375 102.703125 178.308594 101 179.105469 C 97.78125 180.550781 94.5625 180.949219 91.234375 179.753906 C 84.867188 177.441406 81.066406 181.128906 77.519531 185.472656 C 77.121094 185.941406 76.328125 186.484375 77.375 187.390625 C 81.355469 190.753906 91.738281 189.667969 94.851562 185.21875 C 96.839844 182.398438 99.519531 181.128906 102.628906 180.480469 C 108.417969 179.320312 114.132812 179.574219 119.921875 180.878906 C 125.097656 182.035156 130.160156 183.15625 135.046875 186.339844 C 130.921875 187.859375 127.085938 188.691406 123.25 189.164062 C 120.03125 189.558594 116.703125 189.488281 113.917969 187.316406 C 105.199219 180.515625 96.335938 186.992188 93.003906 194.445312 C 94.996094 194.734375 97.09375 194.734375 98.9375 195.386719 C 103.535156 197.011719 107.152344 195.675781 110.625 192.597656 C 114.640625 189.019531 115.546875 189.054688 120.648438 192.019531 C 115.363281 196.035156 109.9375 200.050781 103.171875 200.488281 C 95.828125 200.957031 91.632812 208.589844 91.667969 214.523438 C 93.621094 213.945312 95.503906 213.003906 97.457031 212.894531 C 103.96875 212.535156 107.550781 208.734375 109.503906 203.019531 C 110.046875 201.425781 110.878906 200.125 112.21875 199.328125 C 115.980469 197.011719 120.25 195.785156 124.589844 193.792969 C 122.855469 197.882812 122.3125 198.425781 119.378906 199.472656 C 110.335938 202.65625 108.09375 207.398438 110.949219 216.585938 C 111.492188 218.324219 111.925781 218.140625 113.121094 217.453125 C 118.984375 214.054688 122.601562 209.3125 122.417969 202.296875 C 122.347656 199.980469 123.214844 198.207031 124.84375 196.652344 C 129.222656 192.453125 134.648438 191.585938 140.363281 191.949219 C 141.992188 192.058594 144.921875 191.007812 144.960938 192.816406 C 144.996094 194.589844 142.101562 195.566406 139.964844 195.964844 C 139.53125 196.035156 139.0625 195.929688 138.628906 196 C 134.683594 196.6875 131.285156 198.351562 129.472656 202.078125 C 127.847656 205.40625 127.414062 209.132812 126.761719 213.1875 C 128.640625 212.390625 130.199219 212.207031 131.71875 212.027344 C 137.21875 211.339844 141.125 208.265625 142.933594 203.199219 C 143.910156 200.488281 144.378906 197.773438 147.5625 196.941406 C 150.496094 196.179688 153.351562 196.652344 156.03125 198.0625 C 164.132812 202.296875 170.140625 208.480469 172.3125 217.492188 C 175.421875 230.335938 173.867188 243.070312 170.03125 255.480469 C 166.703125 266.261719 159.9375 273.894531 148.722656 277.257812 C 141.195312 279.503906 133.636719 281.636719 125.710938 280.695312 C 118.621094 279.863281 111.78125 280.191406 105.558594 283.808594 C 100.242188 286.882812 94.707031 287.535156 88.773438 286.847656 C 83.019531 286.160156 72.925781 290.574219 69.671875 295.386719 C 78.859375 290.320312 88.410156 290.464844 98.289062 292.960938 C 94.5625 297.738281 90.691406 302.113281 83.925781 302.078125 C 82.695312 302.078125 81.464844 302.402344 80.269531 302.621094 C 75.710938 303.488281 72.890625 306.417969 72.890625 311.015625 C 75.820312 306.601562 79.945312 305.152344 84.46875 305.371094 C 91.523438 305.695312 96.40625 302.222656 100.457031 297.085938 C 105.523438 290.683594 114.316406 287.207031 122.671875 288.621094 C 118.875 291.910156 116.050781 295.78125 113.882812 300.050781 C 110.191406 307.253906 104.910156 312.460938 96.769531 314.414062 C 94.34375 314.996094 92.210938 316.441406 90.761719 318.539062 C 88.917969 321.179688 87.46875 324.003906 88.738281 327.367188 C 90.039062 323.894531 91.449219 320.566406 94.960938 318.902344 C 100.386719 316.371094 106.71875 315.828125 111.457031 310.976562 C 111.457031 319.046875 108.382812 325.414062 104.582031 332.144531 C 112.144531 328.164062 114.425781 321.796875 115.039062 314.488281 C 115.761719 305.625 119.960938 298.53125 127.449219 294.15625 C 133.636719 290.539062 141.089844 290.71875 148.289062 289.523438 C 148.144531 290.246094 148.144531 290.574219 148 290.863281 C 144.816406 297.265625 140.109375 302.007812 133.636719 305.261719 C 125.167969 309.496094 120.648438 316.332031 120.429688 326.101562 C 120.320312 331.273438 118.222656 335.832031 113.738281 339.015625 C 109.070312 342.308594 107.984375 344.625 108.78125 349.183594 C 109.683594 345.421875 112.109375 342.925781 115.21875 341.332031 C 119.417969 339.164062 121.695312 335.652344 123.214844 331.457031 C 124.300781 328.417969 125.421875 325.449219 125.964844 322.195312 C 126.582031 318.394531 128.605469 315.355469 131.863281 313.183594 C 132.875 312.535156 134.070312 312.246094 135.011719 312.859375 C 135.804688 313.402344 135.261719 314.488281 135.117188 315.355469 C 134.214844 320.566406 133.597656 325.738281 134.503906 331.058594 C 136.09375 340.210938 134.71875 348.496094 125.855469 354.394531 C 131.5 353.632812 136.09375 349.183594 138.050781 343.140625 C 139.53125 338.476562 139.386719 333.625 139.496094 328.816406 C 139.714844 318.578125 144.054688 310.582031 152.484375 304.71875 C 156.464844 301.96875 160.191406 298.929688 163.339844 295.242188 C 165.402344 292.851562 167.535156 290.539062 169.632812 288.222656 C 169.886719 288.476562 170.175781 288.726562 170.429688 288.980469 C 170.210938 295.167969 166.234375 299.402344 162.289062 303.488281 C 155.992188 310.039062 153.101562 317.925781 152.992188 326.824219 C 152.917969 331.347656 151.582031 335.109375 148.9375 338.582031 C 146.261719 342.164062 143.621094 345.746094 142.390625 350.160156 C 140.726562 356.238281 142.101562 362.171875 146.40625 365.390625 C 140.871094 352.875 149.15625 345.636719 155.847656 337.679688 C 158.707031 341.695312 159.828125 346.144531 160.261719 350.703125 C 160.660156 355.191406 159.179688 359.496094 158.417969 364.308594 C 160.300781 362.605469 161.203125 360.871094 161.925781 358.953125 C 164.570312 351.824219 164.207031 344.734375 161.964844 337.605469 C 160.699219 333.554688 159.179688 329.503906 160.300781 325.160156 C 161.492188 320.601562 162.578125 315.972656 166.882812 312.644531 C 167.679688 318.792969 169.164062 324.292969 172.417969 329.066406 C 177.304688 336.339844 177.664062 343.574219 173.867188 351.5 C 170.394531 358.769531 173.46875 367.382812 180.742188 371.613281 C 174.226562 364.089844 176.582031 356.566406 180.125 348.820312 C 183.453125 341.585938 183.417969 334.097656 180.269531 326.679688 C 179.039062 323.820312 177.449219 321.074219 177.160156 317.890625 C 176.253906 307.503906 181.753906 298.96875 185.371094 289.742188 C 187.398438 296.46875 191.484375 301.714844 195.792969 306.855469 C 199.410156 311.195312 200.820312 316.296875 200.097656 321.90625 C 199.589844 325.847656 197.382812 329.175781 195.71875 332.722656 C 192.210938 340.175781 191.882812 347.554688 196.117188 354.828125 C 198.976562 359.785156 200.277344 364.847656 198.359375 370.492188 C 202.449219 365.355469 202.484375 359.710938 199.769531 354.210938 C 196.117188 346.867188 197.382812 340.5 202.230469 334.3125 C 205.234375 330.480469 207.804688 326.390625 208.492188 321.21875 C 209.792969 322.195312 209.902344 323.460938 210.261719 324.582031 C 211.566406 328.707031 212 333.121094 214.132812 336.992188 C 216.414062 341.117188 216.882812 345.386719 215.652344 349.90625 C 215.183594 351.609375 214.714844 353.378906 214.53125 355.117188 C 214.0625 359.894531 213.882812 364.632812 217.570312 368.613281 C 215.652344 360.183594 218.65625 352.691406 221.585938 344.625 C 227.992188 350.59375 231.210938 357.214844 229.183594 366.296875 C 231.246094 364.488281 231.679688 362.644531 231.824219 360.761719 C 232.40625 352.984375 230.269531 346.144531 224.625 340.574219 C 220.394531 336.375 218.222656 331.347656 217.644531 325.414062 C 216.847656 317.308594 214.570312 309.675781 209.683594 302.984375 C 206.355469 298.425781 203.96875 293.324219 201.507812 287.679688 C 205.488281 290.574219 208.960938 293.25 212.542969 295.675781 C 220.25 300.957031 223.9375 308.046875 223.902344 317.5625 C 223.902344 323.714844 225.457031 329.753906 230.886719 334.023438 C 227.992188 324.652344 227.703125 318.648438 229.546875 309.421875 C 237.398438 313.945312 240.402344 320.566406 239.027344 329.648438 C 238.121094 335.6875 238.15625 341.695312 240.761719 347.410156 C 242.753906 351.753906 245.972656 353.816406 250.242188 353.453125 C 245.828125 350.882812 242.644531 347.339844 242.066406 342.453125 C 241.339844 336.195312 243.148438 330.046875 243.800781 323.605469 C 246.082031 325.488281 247.203125 327.621094 248.105469 329.898438 C 249.265625 332.792969 250.386719 335.726562 252.121094 338.332031 C 255.777344 343.757812 261.855469 346.542969 266.992188 345.167969 C 266.957031 345.058594 266.921875 344.914062 266.847656 344.878906 C 266.160156 344.515625 265.507812 344.082031 264.75 343.867188 C 259.359375 342.273438 256.320312 338.367188 254.328125 333.375 C 253.785156 332.035156 253.171875 330.695312 252.773438 329.320312 C 249.625 318.9375 243.621094 310.617188 235.046875 303.921875 C 230.160156 300.125 226.433594 295.167969 224.046875 289.34375 C 225.964844 288.402344 227.628906 289.558594 229.328125 289.742188 C 244.234375 291.1875 253.460938 299.148438 256.753906 313.800781 C 257.875 318.722656 259.214844 323.570312 262.324219 327.621094 C 265.402344 331.636719 269.488281 333.953125 274.988281 333.773438 C 266.738281 329.175781 262.757812 322.011719 261.3125 312.496094 C 265.507812 314.703125 269.308594 316.660156 273.503906 317.238281 C 279.582031 318.105469 285.335938 319.335938 288.84375 325.234375 C 287.902344 319.410156 284.429688 315.972656 279.003906 314.742188 C 273.214844 313.402344 267.714844 311.519531 263.734375 306.960938 C 258.707031 301.210938 255.8125 293.792969 249.226562 288.726562 C 258.742188 287.390625 266.378906 288.871094 272.5625 296.21875 C 277.304688 301.824219 283.597656 305.296875 291.339844 305.226562 C 295.71875 305.191406 299.519531 306.023438 301.074219 311.339844 C 301.976562 307.179688 300.097656 304.9375 297.203125 303.453125 C 295.753906 302.695312 294.089844 302.222656 292.460938 301.898438 C 287.6875 300.921875 283.238281 299.257812 279.328125 296.324219 C 278.679688 295.855469 277.558594 295.347656 278.027344 294.261719 C 278.097656 293.648438 279.148438 294.011719 279.871094 294.046875 Z M 208.128906 106.964844 C 208.851562 106.925781 209.503906 106.816406 210.15625 106.636719 C 210.082031 106.671875 210.046875 106.710938 209.972656 106.746094 C 208.707031 107.46875 207.441406 108.191406 206.175781 108.953125 C 203.425781 110.617188 202.160156 113.113281 202.59375 116.296875 C 202.738281 117.382812 202.917969 118.433594 202.664062 119.480469 C 202.015625 119.265625 201.289062 119.265625 200.566406 119.515625 C 198.648438 120.167969 199.226562 121.867188 199.191406 123.242188 C 199.121094 126.210938 199.589844 129.285156 197.417969 132.035156 C 196.875 129.902344 196.296875 127.984375 195.972656 125.992188 C 194.308594 116.769531 199.300781 107.648438 208.128906 106.964844 Z M 208.128906 106.964844 " fill-opacity="1" fill-rule="nonzero"/></g><path fill="#717744" d="M 246.730469 154.863281 C 257.695312 158.628906 261.238281 155.734375 265.617188 145.058594 C 251.796875 144.480469 248.613281 146.144531 246.730469 154.863281 Z M 246.730469 154.863281 " fill-opacity="1" fill-rule="nonzero"/><g clip-path="url(#8fce194bd7)"><path fill="#fffdfb" d="M 133.453125 331.421875 C 114.351562 324.117188 96.933594 313.164062 82.046875 298.835938 C 67.160156 284.511719 55.5 267.65625 47.355469 248.835938 C 39.488281 230.578125 35.417969 211.335938 34.996094 191.390625 C 34.574219 171.445312 37.945312 152.0625 45.109375 133.523438 C 52.410156 114.421875 63.367188 97.003906 77.691406 82.117188 C 92.019531 67.230469 108.875 55.570312 127.695312 47.425781 C 145.953125 39.558594 165.195312 35.488281 185.140625 35.066406 C 205.085938 34.644531 224.464844 38.015625 243.007812 45.179688 C 262.109375 52.480469 279.523438 63.4375 294.414062 77.761719 C 309.300781 92.089844 320.957031 108.945312 329.105469 127.765625 C 336.96875 146.023438 341.042969 165.265625 341.464844 185.210938 C 341.886719 205.15625 338.515625 224.535156 331.351562 243.078125 C 324.046875 262.179688 313.09375 279.59375 298.765625 294.484375 C 284.441406 309.371094 267.585938 321.027344 248.765625 329.175781 C 230.507812 337.039062 211.265625 341.113281 191.320312 341.535156 C 190.195312 341.535156 189.214844 341.535156 188.089844 341.535156 C 169.269531 341.535156 150.871094 338.164062 133.453125 331.421875 Z M 185.421875 52.058594 C 149.042969 52.761719 115.054688 67.652344 89.914062 93.914062 C 64.769531 120.179688 51.289062 154.730469 51.988281 191.109375 C 52.691406 227.488281 67.582031 261.476562 93.84375 286.617188 C 119.40625 311.195312 152.835938 324.539062 188.230469 324.539062 C 189.210938 324.539062 190.054688 324.539062 191.039062 324.539062 C 227.417969 323.835938 261.40625 308.949219 286.546875 282.683594 C 311.6875 256.417969 325.171875 221.867188 324.46875 185.492188 C 323.765625 149.113281 308.878906 115.125 282.613281 89.984375 C 257.050781 65.402344 223.625 52.058594 188.230469 52.058594 C 152.835938 52.058594 186.402344 52.058594 185.421875 52.058594 Z M 185.421875 52.058594 " fill-opacity="1" fill-rule="nonzero"/></g><g clip-path="url(#7f347dfe46)"><g clip-path="url(#1e73c73239)"><g transform="matrix(1, 0, 0, 1, 134, 283)"><g clip-path="url(#26d57edd4d)"><g clip-path="url(#76b2768786)"><g clip-path="url(#ed24011af7)"><path fill="#717744" d="M 0.726562 0.171875 L 106.234375 0.171875 L 106.234375 29.34375 L 0.726562 29.34375 Z M 0.726562 0.171875 " fill-opacity="1" fill-rule="nonzero"/></g></g></g></g></g></g><g clip-path="url(#3fdf93152f)"><g clip-path="url(#25af2bb6cd)"><g transform="matrix(1, 0, 0, 1, 109, 283)"><g clip-path="url(#e1219628c0)"><g clip-path="url(#c35db55652)"><g clip-path="url(#689460d928)"><path fill="#717744" d="M 0.261719 0.171875 L 41.734375 0.171875 L 41.734375 14.757812 L 0.261719 14.757812 Z M 0.261719 0.171875 " fill-opacity="1" fill-rule="nonzero"/></g></g></g></g></g></g><g clip-path="url(#28bcc62db6)"><g clip-path="url(#d1ea1eb85c)"><g transform="matrix(1, 0, 0, 1, 212, 283)"><g clip-path="url(#0e962bd792)"><g clip-path="url(#31d87e6ace)"><g clip-path="url(#a2d69ecfb6)"><path fill="#717744" d="M 0.527344 0.628906 L 49.003906 0.628906 L 49.003906 17.675781 L 0.527344 17.675781 Z M 0.527344 0.628906 " fill-opacity="1" fill-rule="nonzero"/></g></g></g></g></g></g></svg>