<svg xmlns="http://www.w3.org/2000/svg" xmlns:xlink="http://www.w3.org/1999/xlink" width="500" zoomAndPan="magnify" viewBox="0 0 375 374.999991" height="500" preserveAspectRatio="xMidYMid meet" version="1.0"><defs><clipPath id="88bdd3d448"><path d="M 36.695312 36.695312 L 338.195312 36.695312 L 338.195312 338.195312 L 36.695312 338.195312 Z M 36.695312 36.695312 " clip-rule="nonzero"/></clipPath><clipPath id="3c738c10f9"><path d="M 49.28125 48.476562 L 326 48.476562 L 326 325 L 49.28125 325 Z M 49.28125 48.476562 " clip-rule="nonzero"/></clipPath><clipPath id="9531f9f213"><path d="M 92.292969 194 L 282.792969 194 L 282.792969 283 L 92.292969 283 Z M 92.292969 194 " clip-rule="nonzero"/></clipPath><clipPath id="a92b8ad898"><path d="M 133 97.007812 L 236 97.007812 L 236 200 L 133 200 Z M 133 97.007812 " clip-rule="nonzero"/></clipPath><clipPath id="c84e7b68af"><path d="M 109.117188 225.71875 L 269.21875 225.71875 L 269.21875 299.96875 L 109.117188 299.96875 Z M 109.117188 225.71875 " clip-rule="nonzero"/></clipPath><clipPath id="cd0461141c"><path d="M 118.117188 225.71875 L 260.203125 225.71875 C 265.171875 225.71875 269.203125 229.75 269.203125 234.71875 L 269.203125 290.96875 C 269.203125 295.941406 265.171875 299.96875 260.203125 299.96875 L 118.117188 299.96875 C 113.144531 299.96875 109.117188 295.941406 109.117188 290.96875 L 109.117188 234.71875 C 109.117188 229.75 113.144531 225.71875 118.117188 225.71875 Z M 118.117188 225.71875 " clip-rule="nonzero"/></clipPath><clipPath id="4e1ab8f85b"><path d="M 0.117188 0.71875 L 160.21875 0.71875 L 160.21875 74.96875 L 0.117188 74.96875 Z M 0.117188 0.71875 " clip-rule="nonzero"/></clipPath><clipPath id="6b5c14556a"><path d="M 9.117188 0.71875 L 151.203125 0.71875 C 156.171875 0.71875 160.203125 4.75 160.203125 9.71875 L 160.203125 65.96875 C 160.203125 70.941406 156.171875 74.96875 151.203125 74.96875 L 9.117188 74.96875 C 4.144531 74.96875 0.117188 70.941406 0.117188 65.96875 L 0.117188 9.71875 C 0.117188 4.75 4.144531 0.71875 9.117188 0.71875 Z M 9.117188 0.71875 " clip-rule="nonzero"/></clipPath><clipPath id="df8d6b0ffa"><rect x="0" width="161" y="0" height="75"/></clipPath><clipPath id="21c1082be7"><path d="M 134.347656 262.84375 L 240.664062 262.84375 L 240.664062 312.152344 L 134.347656 312.152344 Z M 134.347656 262.84375 " clip-rule="nonzero"/></clipPath><clipPath id="b90ad7a57e"><path d="M 143.347656 262.84375 L 231.652344 262.84375 C 236.625 262.84375 240.652344 266.875 240.652344 271.84375 L 240.652344 303.152344 C 240.652344 308.121094 236.625 312.152344 231.652344 312.152344 L 143.347656 312.152344 C 138.375 312.152344 134.347656 308.121094 134.347656 303.152344 L 134.347656 271.84375 C 134.347656 266.875 138.375 262.84375 143.347656 262.84375 Z M 143.347656 262.84375 " clip-rule="nonzero"/></clipPath><clipPath id="730988b1b7"><path d="M 0.347656 0.84375 L 106.664062 0.84375 L 106.664062 50.152344 L 0.347656 50.152344 Z M 0.347656 0.84375 " clip-rule="nonzero"/></clipPath><clipPath id="b50e6be782"><path d="M 9.347656 0.84375 L 97.652344 0.84375 C 102.625 0.84375 106.652344 4.875 106.652344 9.84375 L 106.652344 41.152344 C 106.652344 46.121094 102.625 50.152344 97.652344 50.152344 L 9.347656 50.152344 C 4.375 50.152344 0.347656 46.121094 0.347656 41.152344 L 0.347656 9.84375 C 0.347656 4.875 4.375 0.84375 9.347656 0.84375 Z M 9.347656 0.84375 " clip-rule="nonzero"/></clipPath><clipPath id="38d9960125"><rect x="0" width="107" y="0" height="51"/></clipPath></defs><g clip-path="url(#88bdd3d448)"><path fill="#ffffff" d="M 338.300781 187.496094 C 338.300781 189.964844 338.238281 192.429688 338.117188 194.898438 C 337.996094 197.363281 337.816406 199.820312 337.574219 202.277344 C 337.332031 204.734375 337.03125 207.183594 336.667969 209.625 C 336.304688 212.066406 335.882812 214.496094 335.402344 216.917969 C 334.921875 219.335938 334.378906 221.746094 333.78125 224.140625 C 333.179688 226.53125 332.523438 228.910156 331.804688 231.273438 C 331.089844 233.632812 330.316406 235.976562 329.484375 238.300781 C 328.652344 240.625 327.765625 242.925781 326.820312 245.207031 C 325.875 247.488281 324.875 249.742188 323.820312 251.972656 C 322.765625 254.203125 321.65625 256.410156 320.492188 258.585938 C 319.328125 260.761719 318.113281 262.90625 316.84375 265.023438 C 315.574219 267.140625 314.257812 269.226562 312.886719 271.277344 C 311.511719 273.332031 310.09375 275.347656 308.621094 277.328125 C 307.152344 279.3125 305.632812 281.257812 304.070312 283.164062 C 302.503906 285.074219 300.890625 286.941406 299.234375 288.769531 C 297.578125 290.597656 295.875 292.386719 294.128906 294.128906 C 292.386719 295.875 290.597656 297.578125 288.769531 299.234375 C 286.941406 300.890625 285.074219 302.503906 283.164062 304.070312 C 281.257812 305.632812 279.3125 307.152344 277.328125 308.621094 C 275.347656 310.09375 273.332031 311.511719 271.277344 312.886719 C 269.226562 314.257812 267.140625 315.574219 265.023438 316.84375 C 262.90625 318.113281 260.761719 319.328125 258.585938 320.492188 C 256.410156 321.65625 254.203125 322.765625 251.972656 323.820312 C 249.742188 324.875 247.488281 325.875 245.207031 326.820312 C 242.925781 327.765625 240.625 328.652344 238.300781 329.484375 C 235.976562 330.316406 233.632812 331.089844 231.273438 331.804688 C 228.910156 332.523438 226.53125 333.179688 224.140625 333.78125 C 221.746094 334.378906 219.335938 334.921875 216.917969 335.402344 C 214.496094 335.882812 212.066406 336.304688 209.625 336.667969 C 207.183594 337.03125 204.734375 337.332031 202.277344 337.574219 C 199.820312 337.816406 197.363281 337.996094 194.898438 338.117188 C 192.429688 338.238281 189.964844 338.300781 187.496094 338.300781 C 185.027344 338.300781 182.5625 338.238281 180.097656 338.117188 C 177.632812 337.996094 175.171875 337.816406 172.714844 337.574219 C 170.257812 337.332031 167.8125 337.03125 165.371094 336.667969 C 162.929688 336.304688 160.496094 335.882812 158.078125 335.402344 C 155.65625 334.921875 153.25 334.378906 150.855469 333.78125 C 148.460938 333.179688 146.082031 332.523438 143.722656 331.804688 C 141.359375 331.089844 139.015625 330.316406 136.691406 329.484375 C 134.371094 328.652344 132.066406 327.765625 129.789062 326.820312 C 127.507812 325.875 125.25 324.875 123.019531 323.820312 C 120.789062 322.765625 118.585938 321.65625 116.410156 320.492188 C 114.234375 319.328125 112.085938 318.113281 109.96875 316.84375 C 107.851562 315.574219 105.765625 314.257812 103.714844 312.886719 C 101.664062 311.511719 99.644531 310.09375 97.664062 308.621094 C 95.679688 307.152344 93.738281 305.632812 91.828125 304.070312 C 89.921875 302.503906 88.050781 300.890625 86.222656 299.234375 C 84.394531 297.578125 82.609375 295.875 80.863281 294.128906 C 79.117188 292.386719 77.417969 290.597656 75.757812 288.769531 C 74.101562 286.941406 72.492188 285.074219 70.925781 283.164062 C 69.359375 281.257812 67.839844 279.3125 66.371094 277.328125 C 64.902344 275.347656 63.480469 273.332031 62.109375 271.277344 C 60.738281 269.226562 59.417969 267.140625 58.148438 265.023438 C 56.878906 262.90625 55.664062 260.761719 54.5 258.585938 C 53.335938 256.410156 52.226562 254.203125 51.171875 251.972656 C 50.117188 249.742188 49.117188 247.488281 48.171875 245.207031 C 47.230469 242.925781 46.339844 240.625 45.507812 238.300781 C 44.679688 235.976562 43.902344 233.632812 43.1875 231.273438 C 42.472656 228.910156 41.8125 226.53125 41.214844 224.140625 C 40.613281 221.746094 40.074219 219.335938 39.59375 216.917969 C 39.109375 214.496094 38.6875 212.066406 38.328125 209.625 C 37.964844 207.183594 37.664062 204.734375 37.421875 202.277344 C 37.179688 199.820312 36.996094 197.363281 36.875 194.898438 C 36.753906 192.429688 36.695312 189.964844 36.695312 187.496094 C 36.695312 185.027344 36.753906 182.5625 36.875 180.097656 C 36.996094 177.632812 37.179688 175.171875 37.421875 172.714844 C 37.664062 170.257812 37.964844 167.8125 38.328125 165.371094 C 38.6875 162.929688 39.109375 160.496094 39.59375 158.078125 C 40.074219 155.65625 40.613281 153.25 41.214844 150.855469 C 41.8125 148.460938 42.472656 146.082031 43.1875 143.722656 C 43.902344 141.359375 44.679688 139.015625 45.507812 136.691406 C 46.339844 134.371094 47.230469 132.066406 48.171875 129.789062 C 49.117188 127.507812 50.117188 125.25 51.171875 123.019531 C 52.226562 120.789062 53.335938 118.585938 54.5 116.410156 C 55.664062 114.234375 56.878906 112.085938 58.148438 109.96875 C 59.417969 107.851562 60.738281 105.765625 62.109375 103.714844 C 63.480469 101.664062 64.902344 99.644531 66.371094 97.664062 C 67.839844 95.679688 69.359375 93.738281 70.925781 91.828125 C 72.492188 89.921875 74.101562 88.050781 75.757812 86.222656 C 77.417969 84.394531 79.117188 82.609375 80.863281 80.863281 C 82.609375 79.117188 84.394531 77.417969 86.222656 75.757812 C 88.050781 74.101562 89.921875 72.492188 91.828125 70.925781 C 93.738281 69.359375 95.679688 67.839844 97.664062 66.371094 C 99.644531 64.902344 101.664062 63.480469 103.714844 62.109375 C 105.765625 60.738281 107.851562 59.417969 109.96875 58.148438 C 112.085938 56.878906 114.234375 55.664062 116.410156 54.5 C 118.585938 53.335938 120.789062 52.226562 123.019531 51.171875 C 125.25 50.117188 127.507812 49.117188 129.789062 48.171875 C 132.066406 47.230469 134.371094 46.339844 136.691406 45.507812 C 139.015625 44.679688 141.359375 43.902344 143.722656 43.1875 C 146.082031 42.472656 148.460938 41.8125 150.855469 41.214844 C 153.25 40.613281 155.65625 40.074219 158.078125 39.59375 C 160.496094 39.109375 162.929688 38.6875 165.371094 38.328125 C 167.8125 37.964844 170.257812 37.664062 172.714844 37.421875 C 175.171875 37.179688 177.632812 36.996094 180.097656 36.875 C 182.5625 36.753906 185.027344 36.695312 187.496094 36.695312 C 189.964844 36.695312 192.429688 36.753906 194.898438 36.875 C 197.363281 36.996094 199.820312 37.179688 202.277344 37.421875 C 204.734375 37.664062 207.183594 37.964844 209.625 38.328125 C 212.066406 38.6875 214.496094 39.109375 216.917969 39.59375 C 219.335938 40.074219 221.746094 40.613281 224.140625 41.214844 C 226.53125 41.8125 228.910156 42.472656 231.273438 43.1875 C 233.632812 43.902344 235.976562 44.679688 238.300781 45.507812 C 240.625 46.339844 242.925781 47.230469 245.207031 48.171875 C 247.488281 49.117188 249.742188 50.117188 251.972656 51.171875 C 254.203125 52.226562 256.410156 53.335938 258.585938 54.5 C 260.761719 55.664062 262.90625 56.878906 265.023438 58.148438 C 267.140625 59.417969 269.226562 60.738281 271.277344 62.109375 C 273.332031 63.480469 275.347656 64.902344 277.328125 66.371094 C 279.3125 67.839844 281.257812 69.359375 283.164062 70.925781 C 285.074219 72.492188 286.941406 74.101562 288.769531 75.757812 C 290.597656 77.417969 292.386719 79.117188 294.128906 80.863281 C 295.875 82.609375 297.578125 84.394531 299.234375 86.222656 C 300.890625 88.050781 302.503906 89.921875 304.070312 91.828125 C 305.632812 93.738281 307.152344 95.679688 308.621094 97.664062 C 310.09375 99.644531 311.511719 101.664062 312.886719 103.714844 C 314.257812 105.765625 315.574219 107.851562 316.84375 109.96875 C 318.113281 112.085938 319.328125 114.234375 320.492188 116.410156 C 321.65625 118.585938 322.765625 120.789062 323.820312 123.019531 C 324.875 125.25 325.875 127.507812 326.820312 129.789062 C 327.765625 132.066406 328.652344 134.371094 329.484375 136.691406 C 330.316406 139.015625 331.089844 141.359375 331.804688 143.722656 C 332.523438 146.082031 333.179688 148.460938 333.78125 150.855469 C 334.378906 153.25 334.921875 155.65625 335.402344 158.078125 C 335.882812 160.496094 336.304688 162.929688 336.667969 165.371094 C 337.03125 167.8125 337.332031 170.257812 337.574219 172.714844 C 337.816406 175.171875 337.996094 177.632812 338.117188 180.097656 C 338.238281 182.5625 338.300781 185.027344 338.300781 187.496094 Z M 338.300781 187.496094 " fill-opacity="1" fill-rule="nonzero"/></g><path fill="#717744" d="M 187.496094 323.917969 C 112.207031 323.917969 51.078125 262.785156 51.078125 187.496094 C 51.078125 112.207031 112.207031 51.078125 187.496094 51.078125 C 262.785156 51.078125 323.917969 112.207031 323.917969 187.496094 C 323.917969 262.785156 262.785156 323.917969 187.496094 323.917969 Z M 187.496094 54.449219 C 114.007812 54.449219 54.449219 114.007812 54.449219 187.496094 C 54.449219 260.988281 114.230469 320.546875 187.496094 320.546875 C 260.988281 320.546875 320.546875 260.761719 320.546875 187.496094 C 320.546875 114.007812 260.988281 54.449219 187.496094 54.449219 Z M 187.496094 54.449219 " fill-opacity="1" fill-rule="nonzero"/><g clip-path="url(#3c738c10f9)"><path fill="#717744" d="M 138.050781 315.730469 C 120.828125 309.144531 105.125 299.265625 91.703125 286.351562 C 78.28125 273.433594 67.769531 258.238281 60.425781 241.269531 C 53.335938 224.808594 49.664062 207.460938 49.28125 189.480469 C 48.902344 171.496094 51.941406 154.023438 58.398438 137.308594 C 64.984375 120.085938 74.863281 104.382812 87.777344 90.960938 C 100.695312 77.539062 115.890625 67.027344 132.859375 59.683594 C 149.320312 52.59375 166.667969 48.917969 184.648438 48.539062 C 202.632812 48.160156 220.105469 51.199219 236.820312 57.65625 C 254.042969 64.242188 269.746094 74.121094 283.167969 87.035156 C 296.589844 99.953125 307.101562 115.148438 314.445312 132.117188 C 321.539062 148.578125 325.210938 165.925781 325.589844 183.90625 C 325.96875 201.890625 322.929688 219.363281 316.472656 236.078125 C 309.886719 253.300781 300.011719 269.003906 287.09375 282.425781 C 274.175781 295.847656 258.980469 306.359375 242.011719 313.703125 C 225.550781 320.792969 208.203125 324.46875 190.222656 324.847656 C 189.207031 324.847656 188.324219 324.847656 187.308594 324.847656 C 170.339844 324.847656 153.753906 321.808594 138.050781 315.730469 Z M 184.902344 63.863281 C 152.105469 64.496094 121.460938 77.917969 98.792969 101.597656 C 76.128906 125.277344 63.972656 156.429688 64.605469 189.226562 C 65.238281 222.023438 78.660156 252.667969 102.339844 275.335938 C 125.386719 297.496094 155.523438 309.523438 187.4375 309.523438 C 188.324219 309.523438 189.082031 309.523438 189.96875 309.523438 C 222.765625 308.890625 253.410156 295.46875 276.078125 271.789062 C 298.742188 248.109375 310.898438 216.957031 310.265625 184.160156 C 309.632812 151.363281 296.210938 120.71875 272.53125 98.050781 C 249.484375 75.890625 219.347656 63.863281 187.4375 63.863281 C 155.523438 63.863281 185.789062 63.863281 184.902344 63.863281 Z M 184.902344 63.863281 " fill-opacity="1" fill-rule="nonzero"/></g><g clip-path="url(#9531f9f213)"><path fill="#717744" d="M 221.140625 194.539062 C 211.125 202.417969 198.515625 207.136719 184.8125 207.136719 C 171.449219 207.136719 159.117188 202.652344 149.226562 195.121094 C 116.949219 200.335938 92.292969 228.320312 92.292969 262.074219 C 92.292969 299.542969 122.664062 275.183594 160.128906 275.183594 L 214.855469 275.183594 C 252.324219 275.183594 282.699219 299.542969 282.699219 262.074219 C 282.699219 226.730469 255.660156 197.707031 221.140625 194.539062 Z M 221.140625 194.539062 " fill-opacity="1" fill-rule="nonzero"/></g><g clip-path="url(#a92b8ad898)"><path fill="#717744" d="M 184.8125 199.242188 C 212.917969 199.242188 235.78125 176.371094 235.78125 148.265625 C 235.78125 120.160156 212.917969 97.289062 184.8125 97.289062 C 156.707031 97.289062 133.839844 120.160156 133.839844 148.265625 C 133.84375 176.371094 156.707031 199.242188 184.8125 199.242188 Z M 184.8125 199.242188 " fill-opacity="1" fill-rule="nonzero"/></g><g clip-path="url(#c84e7b68af)"><g clip-path="url(#cd0461141c)"><g transform="matrix(1, 0, 0, 1, 109, 225)"><g clip-path="url(#df8d6b0ffa)"><g clip-path="url(#4e1ab8f85b)"><g clip-path="url(#6b5c14556a)"><path fill="#717744" d="M 0.117188 0.71875 L 160.21875 0.71875 L 160.21875 74.96875 L 0.117188 74.96875 Z M 0.117188 0.71875 " fill-opacity="1" fill-rule="nonzero"/></g></g></g></g></g></g><g clip-path="url(#21c1082be7)"><g clip-path="url(#b90ad7a57e)"><g transform="matrix(1, 0, 0, 1, 134, 262)"><g clip-path="url(#38d9960125)"><g clip-path="url(#730988b1b7)"><g clip-path="url(#b50e6be782)"><path fill="#717744" d="M 0.347656 0.84375 L 106.664062 0.84375 L 106.664062 50.152344 L 0.347656 50.152344 Z M 0.347656 0.84375 " fill-opacity="1" fill-rule="nonzero"/></g></g></g></g></g></g></svg>