<svg xmlns="http://www.w3.org/2000/svg" xmlns:xlink="http://www.w3.org/1999/xlink" width="500" zoomAndPan="magnify" viewBox="0 0 375 374.999991" height="500" preserveAspectRatio="xMidYMid meet" version="1.0"><defs><clipPath id="2824fca973"><path d="M 42.988281 43 L 331.738281 43 L 331.738281 331.738281 L 42.988281 331.738281 Z M 42.988281 43 " clip-rule="nonzero"/></clipPath></defs><g clip-path="url(#2824fca973)"><path fill="#fffdfb" d="M 135.796875 322.410156 C 117.792969 315.523438 101.375 305.199219 87.339844 291.695312 C 73.308594 278.1875 62.316406 262.300781 54.640625 244.5625 C 47.226562 227.347656 43.386719 209.210938 42.988281 190.410156 C 42.589844 171.609375 45.769531 153.339844 52.519531 135.863281 C 59.40625 117.859375 69.730469 101.441406 83.238281 87.40625 C 96.742188 73.375 112.628906 62.382812 130.371094 54.707031 C 147.582031 47.292969 165.71875 43.453125 184.519531 43.054688 C 203.320312 42.65625 221.589844 45.835938 239.066406 52.585938 C 257.070312 59.472656 273.488281 69.796875 287.523438 83.304688 C 301.558594 96.808594 312.546875 112.695312 320.226562 130.4375 C 327.640625 147.648438 331.476562 165.785156 331.875 184.585938 C 332.273438 203.386719 329.09375 221.65625 322.34375 239.132812 C 315.457031 257.136719 305.132812 273.554688 291.628906 287.589844 C 278.121094 301.625 262.234375 312.613281 244.496094 320.289062 C 227.28125 327.703125 209.144531 331.542969 190.34375 331.941406 C 189.285156 331.941406 188.359375 331.941406 187.300781 331.941406 C 169.558594 331.941406 152.214844 328.765625 135.796875 322.410156 Z M 184.785156 59.074219 C 150.492188 59.738281 118.453125 73.769531 94.753906 98.527344 C 71.054688 123.285156 58.347656 155.855469 59.007812 190.144531 C 59.671875 224.4375 73.703125 256.476562 98.460938 280.175781 C 122.558594 303.34375 154.066406 315.921875 187.433594 315.921875 C 188.359375 315.921875 189.152344 315.921875 190.078125 315.921875 C 224.371094 315.261719 256.410156 301.226562 280.109375 276.46875 C 303.808594 251.710938 316.515625 219.140625 315.855469 184.851562 C 315.195312 150.558594 301.160156 118.519531 276.402344 94.820312 C 252.304688 71.652344 220.796875 59.074219 187.433594 59.074219 C 154.066406 59.074219 185.710938 59.074219 184.785156 59.074219 Z M 184.785156 59.074219 " fill-opacity="1" fill-rule="nonzero"/></g><path stroke-linecap="butt" transform="matrix(0.517824, 0.542547, -0.542547, 0.517824, 97.03538, 86.204666)" fill="none" stroke-linejoin="miter" d="M 0.00191991 5.999703 L 361.965894 6.000041 " stroke="#ffffff" stroke-width="12" stroke-opacity="1" stroke-miterlimit="4"/><path stroke-linecap="butt" transform="matrix(0.509057, -0.550783, 0.550783, 0.509057, 91.25564, 287.530001)" fill="none" stroke-linejoin="miter" d="M -0.00313979 5.99974 L 361.96947 6.001716 " stroke="#ffffff" stroke-width="12" stroke-opacity="1" stroke-miterlimit="4"/></svg>